<?xml version="1.0" standalone="no"?>
<svg xmlns="http://www.w3.org/2000/svg" width="200" height="200"><defs><clipPath id="clip-path-dot-color"><path d="M 1 61v 6h 3a 3 3, 0, 0, 0, 0 -6" transform="rotate(180,4,64)"/><path d="M 1 79v 6h 6v -3a 3 3, 0, 0, 0, -3 -3" transform="rotate(-90,4,82)"/><path d="M 1 85v 6h 6v -3a 3 3, 0, 0, 0, -3 -3" transform="rotate(180,4,88)"/><path d="M 1 103v 6h 3a 3 3, 0, 0, 0, 0 -6" transform="rotate(-90,4,106)"/><rect x="1" y="109" width="6" height="6" transform="rotate(0,4,112)"/><rect x="1" y="115" width="6" height="6" transform="rotate(0,4,118)"/><path d="M 1 121v 6h 3a 3 3, 0, 0, 0, 0 -6" transform="rotate(90,4,124)"/><path d="M 1 139v 6h 3a 3 3, 0, 0, 0, 0 -6" transform="rotate(180,4,142)"/><path d="M 7 49v 6h 6v -3a 3 3, 0, 0, 0, -3 -3" transform="rotate(-90,10,52)"/><rect x="7" y="55" width="6" height="6" transform="rotate(0,10,58)"/><rect x="7" y="61" width="6" height="6" transform="rotate(0,10,64)"/><path d="M 7 67v 6h 3a 3 3, 0, 0, 0, 0 -6" transform="rotate(90,10,70)"/><rect x="7" y="79" width="6" height="6" transform="rotate(0,10,82)"/><rect x="7" y="85" width="6" height="6" transform="rotate(0,10,88)"/><path d="M 7 91v 6h 3a 3 3, 0, 0, 0, 0 -6" transform="rotate(90,10,94)"/><path d="M 7 109v 6h 3a 3 3, 0, 0, 0, 0 -6" transform="rotate(0,10,112)"/><path d="M 7 127v 6h 3a 3 3, 0, 0, 0, 0 -6" transform="rotate(-90,10,130)"/><rect x="7" y="133" width="6" height="6" transform="rotate(0,10,136)"/><rect x="7" y="139" width="6" height="6" transform="rotate(0,10,142)"/><path d="M 7 145v 6h 3a 3 3, 0, 0, 0, 0 -6" transform="rotate(90,10,148)"/><path d="M 13 49v 6h 3a 3 3, 0, 0, 0, 0 -6" transform="rotate(0,16,52)"/><rect x="13" y="61" width="6" height="6" transform="rotate(0,16,64)"/><path d="M 13 79v 6h 3a 3 3, 0, 0, 0, 0 -6" transform="rotate(0,16,82)"/><path d="M 13 97v 6h 6v -3a 3 3, 0, 0, 0, -3 -3" transform="rotate(-90,16,100)"/><path d="M 13 103v 6h 3a 3 3, 0, 0, 0, 0 -6" transform="rotate(90,16,106)"/><path d="M 13 115v 6h 6v -3a 3 3, 0, 0, 0, -3 -3" transform="rotate(-90,16,118)"/><path d="M 13 121v 6h 3a 3 3, 0, 0, 0, 0 -6" transform="rotate(90,16,124)"/><rect x="13" y="133" width="6" height="6" transform="rotate(0,16,136)"/><path d="M 13 139v 6h 6v -3a 3 3, 0, 0, 0, -3 -3" transform="rotate(90,16,142)"/><path d="M 19 55v 6h 3a 3 3, 0, 0, 0, 0 -6" transform="rotate(-90,22,58)"/><rect x="19" y="61" width="6" height="6" transform="rotate(0,22,64)"/><path d="M 19 67v 6h 3a 3 3, 0, 0, 0, 0 -6" transform="rotate(90,22,70)"/><path d="M 19 85v 6h 6v -3a 3 3, 0, 0, 0, -3 -3" transform="rotate(-90,22,88)"/><rect x="19" y="91" width="6" height="6" transform="rotate(0,22,94)"/><path d="M 19 97v 6h 6v -3a 3 3, 0, 0, 0, -3 -3" transform="rotate(90,22,100)"/><path d="M 19 115v 6h 3a 3 3, 0, 0, 0, 0 -6" transform="rotate(0,22,118)"/><rect x="19" y="133" width="6" height="6" transform="rotate(0,22,136)"/><circle cx="22" cy="148" r="3" transform="rotate(0,22,148)"/><rect x="25" y="61" width="6" height="6" transform="rotate(0,28,64)"/><path d="M 25 73v 6h 3a 3 3, 0, 0, 0, 0 -6" transform="rotate(-90,28,76)"/><rect x="25" y="79" width="6" height="6" transform="rotate(0,28,82)"/><rect x="25" y="85" width="6" height="6" transform="rotate(0,28,88)"/><circle cx="28" cy="106" r="3" transform="rotate(0,28,106)"/><path d="M 25 121v 6h 6v -3a 3 3, 0, 0, 0, -3 -3" transform="rotate(-90,28,124)"/><rect x="25" y="127" width="6" height="6" transform="rotate(0,28,130)"/><path d="M 25 133v 6h 6v -3a 3 3, 0, 0, 0, -3 -3" transform="rotate(90,28,136)"/><rect x="31" y="61" width="6" height="6" transform="rotate(0,34,64)"/><path d="M 31 67v 6h 3a 3 3, 0, 0, 0, 0 -6" transform="rotate(90,34,70)"/><rect x="31" y="85" width="6" height="6" transform="rotate(0,34,88)"/><path d="M 31 97v 6h 3a 3 3, 0, 0, 0, 0 -6" transform="rotate(180,34,100)"/><path d="M 31 115v 6h 3a 3 3, 0, 0, 0, 0 -6" transform="rotate(-90,34,118)"/><rect x="31" y="121" width="6" height="6" transform="rotate(0,34,124)"/><path d="M 31 145v 6h 3a 3 3, 0, 0, 0, 0 -6" transform="rotate(180,34,148)"/><circle cx="40" cy="52" r="3" transform="rotate(0,40,52)"/><path d="M 37 61v 6h 3a 3 3, 0, 0, 0, 0 -6" transform="rotate(0,40,64)"/><path d="M 37 73v 6h 3a 3 3, 0, 0, 0, 0 -6" transform="rotate(180,40,76)"/><path d="M 37 85v 6h 3a 3 3, 0, 0, 0, 0 -6" transform="rotate(0,40,88)"/><path d="M 37 97v 6h 3a 3 3, 0, 0, 0, 0 -6" transform="rotate(0,40,100)"/><path d="M 37 109v 6h 3a 3 3, 0, 0, 0, 0 -6" transform="rotate(180,40,112)"/><path d="M 37 121v 6h 3a 3 3, 0, 0, 0, 0 -6" transform="rotate(0,40,124)"/><circle cx="40" cy="136" r="3" transform="rotate(0,40,136)"/><rect x="37" y="145" width="6" height="6" transform="rotate(0,40,148)"/><path d="M 43 67v 6h 6v -3a 3 3, 0, 0, 0, -3 -3" transform="rotate(-90,46,70)"/><rect x="43" y="73" width="6" height="6" transform="rotate(0,46,76)"/><path d="M 43 79v 6h 3a 3 3, 0, 0, 0, 0 -6" transform="rotate(90,46,82)"/><circle cx="46" cy="94" r="3" transform="rotate(0,46,94)"/><path d="M 43 103v 6h 6v -3a 3 3, 0, 0, 0, -3 -3" transform="rotate(-90,46,106)"/><rect x="43" y="109" width="6" height="6" transform="rotate(0,46,112)"/><path d="M 43 115v 6h 3a 3 3, 0, 0, 0, 0 -6" transform="rotate(90,46,118)"/><rect x="43" y="145" width="6" height="6" transform="rotate(0,46,148)"/><path d="M 49 7v 6h 3a 3 3, 0, 0, 0, 0 -6" transform="rotate(-90,52,10)"/><rect x="49" y="13" width="6" height="6" transform="rotate(0,52,16)"/><path d="M 49 19v 6h 6v -3a 3 3, 0, 0, 0, -3 -3" transform="rotate(180,52,22)"/><path d="M 49 31v 6h 3a 3 3, 0, 0, 0, 0 -6" transform="rotate(-90,52,34)"/><path d="M 49 37v 6h 3a 3 3, 0, 0, 0, 0 -6" transform="rotate(90,52,40)"/><path d="M 49 55v 6h 3a 3 3, 0, 0, 0, 0 -6" transform="rotate(180,52,58)"/><path d="M 49 67v 6h 6v -3a 3 3, 0, 0, 0, -3 -3" transform="rotate(0,52,70)"/><rect x="49" y="73" width="6" height="6" transform="rotate(0,52,76)"/><path d="M 49 103v 6h 6v -3a 3 3, 0, 0, 0, -3 -3" transform="rotate(0,52,106)"/><rect x="49" y="109" width="6" height="6" transform="rotate(0,52,112)"/><path d="M 49 127v 6h 3a 3 3, 0, 0, 0, 0 -6" transform="rotate(180,52,130)"/><path d="M 49 145v 6h 3a 3 3, 0, 0, 0, 0 -6" transform="rotate(0,52,148)"/><path d="M 49 181v 6h 6v -3a 3 3, 0, 0, 0, -3 -3" transform="rotate(-90,52,184)"/><path d="M 49 187v 6h 3a 3 3, 0, 0, 0, 0 -6" transform="rotate(90,52,190)"/><path d="M 55 1v 6h 3a 3 3, 0, 0, 0, 0 -6" transform="rotate(180,58,4)"/><rect x="55" y="19" width="6" height="6" transform="rotate(0,58,22)"/><path d="M 55 49v 6h 6v -3a 3 3, 0, 0, 0, -3 -3" transform="rotate(-90,58,52)"/><rect x="55" y="55" width="6" height="6" transform="rotate(0,58,58)"/><path d="M 55 61v 6h 3a 3 3, 0, 0, 0, 0 -6" transform="rotate(90,58,64)"/><path d="M 55 73v 6h 6v -3a 3 3, 0, 0, 0, -3 -3" transform="rotate(0,58,76)"/><path d="M 55 79v 6h 6v -3a 3 3, 0, 0, 0, -3 -3" transform="rotate(180,58,82)"/><path d="M 55 109v 6h 6v -3a 3 3, 0, 0, 0, -3 -3" transform="rotate(0,58,112)"/><path d="M 55 115v 6h 3a 3 3, 0, 0, 0, 0 -6" transform="rotate(90,58,118)"/><path d="M 55 127v 6h 3a 3 3, 0, 0, 0, 0 -6" transform="rotate(0,58,130)"/><path d="M 55 139v 6h 3a 3 3, 0, 0, 0, 0 -6" transform="rotate(180,58,142)"/><path d="M 55 157v 6h 3a 3 3, 0, 0, 0, 0 -6" transform="rotate(-90,58,160)"/><path d="M 55 163v 6h 6v -3a 3 3, 0, 0, 0, -3 -3" transform="rotate(180,58,166)"/><path d="M 55 175v 6h 6v -3a 3 3, 0, 0, 0, -3 -3" transform="rotate(-90,58,178)"/><path d="M 55 181v 6h 6v -3a 3 3, 0, 0, 0, -3 -3" transform="rotate(90,58,184)"/><path d="M 55 193v 6h 3a 3 3, 0, 0, 0, 0 -6" transform="rotate(180,58,196)"/><rect x="61" y="1" width="6" height="6" transform="rotate(0,64,4)"/><path d="M 61 13v 6h 6v -3a 3 3, 0, 0, 0, -3 -3" transform="rotate(-90,64,16)"/><rect x="61" y="19" width="6" height="6" transform="rotate(0,64,22)"/><rect x="61" y="25" width="6" height="6" transform="rotate(0,64,28)"/><rect x="61" y="31" width="6" height="6" transform="rotate(0,64,34)"/><rect x="61" y="37" width="6" height="6" transform="rotate(0,64,40)"/><rect x="61" y="43" width="6" height="6" transform="rotate(0,64,46)"/><rect x="61" y="49" width="6" height="6" transform="rotate(0,64,52)"/><rect x="61" y="55" width="6" height="6" transform="rotate(0,64,58)"/><path d="M 61 79v 6h 6v -3a 3 3, 0, 0, 0, -3 -3" transform="rotate(0,64,82)"/><path d="M 61 85v 6h 3a 3 3, 0, 0, 0, 0 -6" transform="rotate(90,64,88)"/><path d="M 61 97v 6h 3a 3 3, 0, 0, 0, 0 -6" transform="rotate(-90,64,100)"/><path d="M 61 103v 6h 3a 3 3, 0, 0, 0, 0 -6" transform="rotate(90,64,106)"/><circle cx="64" cy="124" r="3" transform="rotate(0,64,124)"/><path d="M 61 139v 6h 6v -3a 3 3, 0, 0, 0, -3 -3" transform="rotate(0,64,142)"/><rect x="61" y="145" width="6" height="6" transform="rotate(0,64,148)"/><path d="M 61 151v 6h 3a 3 3, 0, 0, 0, 0 -6" transform="rotate(90,64,154)"/><rect x="61" y="163" width="6" height="6" transform="rotate(0,64,166)"/><rect x="61" y="169" width="6" height="6" transform="rotate(0,64,172)"/><rect x="61" y="175" width="6" height="6" transform="rotate(0,64,178)"/><path d="M 61 187v 6h 3a 3 3, 0, 0, 0, 0 -6" transform="rotate(-90,64,190)"/><rect x="61" y="193" width="6" height="6" transform="rotate(0,64,196)"/><rect x="67" y="1" width="6" height="6" transform="rotate(0,70,4)"/><rect x="67" y="13" width="6" height="6" transform="rotate(0,70,16)"/><path d="M 67 31v 6h 3a 3 3, 0, 0, 0, 0 -6" transform="rotate(0,70,34)"/><rect x="67" y="55" width="6" height="6" transform="rotate(0,70,58)"/><path d="M 67 67v 6h 6v -3a 3 3, 0, 0, 0, -3 -3" transform="rotate(-90,70,70)"/><path d="M 67 73v 6h 6v -3a 3 3, 0, 0, 0, -3 -3" transform="rotate(180,70,76)"/><path d="M 67 91v 6h 3a 3 3, 0, 0, 0, 0 -6" transform="rotate(180,70,94)"/><path d="M 67 109v 6h 3a 3 3, 0, 0, 0, 0 -6" transform="rotate(180,70,112)"/><path d="M 67 133v 6h 3a 3 3, 0, 0, 0, 0 -6" transform="rotate(180,70,136)"/><rect x="67" y="145" width="6" height="6" transform="rotate(0,70,148)"/><path d="M 67 157v 6h 3a 3 3, 0, 0, 0, 0 -6" transform="rotate(-90,70,160)"/><rect x="67" y="163" width="6" height="6" transform="rotate(0,70,166)"/><rect x="67" y="175" width="6" height="6" transform="rotate(0,70,178)"/><rect x="67" y="193" width="6" height="6" transform="rotate(0,70,196)"/><path d="M 73 1v 6h 3a 3 3, 0, 0, 0, 0 -6" transform="rotate(0,76,4)"/><path d="M 73 13v 6h 3a 3 3, 0, 0, 0, 0 -6" transform="rotate(0,76,16)"/><path d="M 73 25v 6h 3a 3 3, 0, 0, 0, 0 -6" transform="rotate(180,76,28)"/><path d="M 73 37v 6h 3a 3 3, 0, 0, 0, 0 -6" transform="rotate(-90,76,40)"/><path d="M 73 43v 6h 3a 3 3, 0, 0, 0, 0 -6" transform="rotate(90,76,46)"/><path d="M 73 55v 6h 6v -3a 3 3, 0, 0, 0, -3 -3" transform="rotate(0,76,58)"/><rect x="73" y="61" width="6" height="6" transform="rotate(0,76,64)"/><rect x="73" y="67" width="6" height="6" transform="rotate(0,76,70)"/><rect x="73" y="73" width="6" height="6" transform="rotate(0,76,76)"/><rect x="73" y="79" width="6" height="6" transform="rotate(0,76,82)"/><rect x="73" y="85" width="6" height="6" transform="rotate(0,76,88)"/><rect x="73" y="91" width="6" height="6" transform="rotate(0,76,94)"/><rect x="73" y="109" width="6" height="6" transform="rotate(0,76,112)"/><path d="M 73 133v 6h 3a 3 3, 0, 0, 0, 0 -6" transform="rotate(0,76,136)"/><rect x="73" y="145" width="6" height="6" transform="rotate(0,76,148)"/><path d="M 73 151v 6h 6v -3a 3 3, 0, 0, 0, -3 -3" transform="rotate(180,76,154)"/><rect x="73" y="163" width="6" height="6" transform="rotate(0,76,166)"/><rect x="73" y="169" width="6" height="6" transform="rotate(0,76,172)"/><path d="M 73 175v 6h 6v -3a 3 3, 0, 0, 0, -3 -3" transform="rotate(90,76,178)"/><path d="M 73 187v 6h 6v -3a 3 3, 0, 0, 0, -3 -3" transform="rotate(-90,76,190)"/><path d="M 73 193v 6h 6v -3a 3 3, 0, 0, 0, -3 -3" transform="rotate(90,76,196)"/><path d="M 79 7v 6h 3a 3 3, 0, 0, 0, 0 -6" transform="rotate(180,82,10)"/><rect x="79" y="25" width="6" height="6" transform="rotate(0,82,28)"/><path d="M 79 31v 6h 3a 3 3, 0, 0, 0, 0 -6" transform="rotate(90,82,34)"/><circle cx="82" cy="52" r="3" transform="rotate(0,82,52)"/><path d="M 79 85v 6h 6v -3a 3 3, 0, 0, 0, -3 -3" transform="rotate(0,82,88)"/><rect x="79" y="91" width="6" height="6" transform="rotate(0,82,94)"/><path d="M 79 97v 6h 3a 3 3, 0, 0, 0, 0 -6" transform="rotate(90,82,100)"/><rect x="79" y="109" width="6" height="6" transform="rotate(0,82,112)"/><rect x="79" y="115" width="6" height="6" transform="rotate(0,82,118)"/><rect x="79" y="121" width="6" height="6" transform="rotate(0,82,124)"/><path d="M 79 127v 6h 6v -3a 3 3, 0, 0, 0, -3 -3" transform="rotate(180,82,130)"/><path d="M 79 145v 6h 6v -3a 3 3, 0, 0, 0, -3 -3" transform="rotate(0,82,148)"/><path d="M 79 151v 6h 6v -3a 3 3, 0, 0, 0, -3 -3" transform="rotate(90,82,154)"/><path d="M 79 163v 6h 3a 3 3, 0, 0, 0, 0 -6" transform="rotate(0,82,166)"/><path d="M 79 181v 6h 6v -3a 3 3, 0, 0, 0, -3 -3" transform="rotate(-90,82,184)"/><path d="M 79 187v 6h 6v -3a 3 3, 0, 0, 0, -3 -3" transform="rotate(90,82,190)"/><rect x="85" y="7" width="6" height="6" transform="rotate(0,88,10)"/><rect x="85" y="13" width="6" height="6" transform="rotate(0,88,16)"/><rect x="85" y="19" width="6" height="6" transform="rotate(0,88,22)"/><rect x="85" y="25" width="6" height="6" transform="rotate(0,88,28)"/><path d="M 85 37v 6h 3a 3 3, 0, 0, 0, 0 -6" transform="rotate(-90,88,40)"/><path d="M 85 43v 6h 6v -3a 3 3, 0, 0, 0, -3 -3" transform="rotate(180,88,46)"/><path d="M 85 61v 6h 6v -3a 3 3, 0, 0, 0, -3 -3" transform="rotate(-90,88,64)"/><path d="M 85 67v 6h 6v -3a 3 3, 0, 0, 0, -3 -3" transform="rotate(180,88,70)"/><path d="M 85 103v 6h 6v -3a 3 3, 0, 0, 0, -3 -3" transform="rotate(-90,88,106)"/><rect x="85" y="109" width="6" height="6" transform="rotate(0,88,112)"/><path d="M 85 115v 6h 6v -3a 3 3, 0, 0, 0, -3 -3" transform="rotate(90,88,118)"/><rect x="85" y="127" width="6" height="6" transform="rotate(0,88,130)"/><path d="M 85 157v 6h 3a 3 3, 0, 0, 0, 0 -6" transform="rotate(180,88,160)"/><rect x="85" y="181" width="6" height="6" transform="rotate(0,88,184)"/><rect x="91" y="7" width="6" height="6" transform="rotate(0,94,10)"/><rect x="91" y="19" width="6" height="6" transform="rotate(0,94,22)"/><rect x="91" y="25" width="6" height="6" transform="rotate(0,94,28)"/><rect x="91" y="43" width="6" height="6" transform="rotate(0,94,46)"/><rect x="91" y="61" width="6" height="6" transform="rotate(0,94,64)"/><path d="M 91 67v 6h 6v -3a 3 3, 0, 0, 0, -3 -3" transform="rotate(90,94,70)"/><circle cx="94" cy="82" r="3" transform="rotate(0,94,82)"/><path d="M 91 91v 6h 3a 3 3, 0, 0, 0, 0 -6" transform="rotate(180,94,94)"/><path d="M 91 103v 6h 6v -3a 3 3, 0, 0, 0, -3 -3" transform="rotate(0,94,106)"/><rect x="91" y="109" width="6" height="6" transform="rotate(0,94,112)"/><rect x="91" y="127" width="6" height="6" transform="rotate(0,94,130)"/><rect x="91" y="133" width="6" height="6" transform="rotate(0,94,136)"/><path d="M 91 139v 6h 3a 3 3, 0, 0, 0, 0 -6" transform="rotate(90,94,142)"/><path d="M 91 151v 6h 6v -3a 3 3, 0, 0, 0, -3 -3" transform="rotate(-90,94,154)"/><rect x="91" y="157" width="6" height="6" transform="rotate(0,94,160)"/><path d="M 91 163v 6h 3a 3 3, 0, 0, 0, 0 -6" transform="rotate(90,94,166)"/><path d="M 91 175v 6h 3a 3 3, 0, 0, 0, 0 -6" transform="rotate(-90,94,178)"/><rect x="91" y="181" width="6" height="6" transform="rotate(0,94,184)"/><rect x="97" y="7" width="6" height="6" transform="rotate(0,100,10)"/><path d="M 97 19v 6h 6v -3a 3 3, 0, 0, 0, -3 -3" transform="rotate(0,100,22)"/><rect x="97" y="25" width="6" height="6" transform="rotate(0,100,28)"/><rect x="97" y="31" width="6" height="6" transform="rotate(0,100,34)"/><rect x="97" y="37" width="6" height="6" transform="rotate(0,100,40)"/><rect x="97" y="43" width="6" height="6" transform="rotate(0,100,46)"/><rect x="97" y="61" width="6" height="6" transform="rotate(0,100,64)"/><circle cx="100" cy="76" r="3" transform="rotate(0,100,76)"/><rect x="97" y="91" width="6" height="6" transform="rotate(0,100,94)"/><rect x="97" y="109" width="6" height="6" transform="rotate(0,100,112)"/><path d="M 97 115v 6h 3a 3 3, 0, 0, 0, 0 -6" transform="rotate(90,100,118)"/><path d="M 97 127v 6h 6v -3a 3 3, 0, 0, 0, -3 -3" transform="rotate(0,100,130)"/><rect x="97" y="133" width="6" height="6" transform="rotate(0,100,136)"/><path d="M 97 145v 6h 6v -3a 3 3, 0, 0, 0, -3 -3" transform="rotate(-90,100,148)"/><rect x="97" y="151" width="6" height="6" transform="rotate(0,100,154)"/><rect x="97" y="157" width="6" height="6" transform="rotate(0,100,160)"/><path d="M 97 169v 6h 3a 3 3, 0, 0, 0, 0 -6" transform="rotate(180,100,172)"/><path d="M 97 181v 6h 3a 3 3, 0, 0, 0, 0 -6" transform="rotate(0,100,184)"/><rect x="103" y="7" width="6" height="6" transform="rotate(0,106,10)"/><path d="M 103 13v 6h 3a 3 3, 0, 0, 0, 0 -6" transform="rotate(90,106,16)"/><path d="M 103 25v 6h 3a 3 3, 0, 0, 0, 0 -6" transform="rotate(0,106,28)"/><path d="M 103 43v 6h 6v -3a 3 3, 0, 0, 0, -3 -3" transform="rotate(0,106,46)"/><rect x="103" y="49" width="6" height="6" transform="rotate(0,106,52)"/><rect x="103" y="55" width="6" height="6" transform="rotate(0,106,58)"/><rect x="103" y="61" width="6" height="6" transform="rotate(0,106,64)"/><path d="M 103 85v 6h 6v -3a 3 3, 0, 0, 0, -3 -3" transform="rotate(-90,106,88)"/><rect x="103" y="91" width="6" height="6" transform="rotate(0,106,94)"/><rect x="103" y="97" width="6" height="6" transform="rotate(0,106,100)"/><rect x="103" y="103" width="6" height="6" transform="rotate(0,106,106)"/><path d="M 103 109v 6h 6v -3a 3 3, 0, 0, 0, -3 -3" transform="rotate(90,106,112)"/><path d="M 103 121v 6h 3a 3 3, 0, 0, 0, 0 -6" transform="rotate(180,106,124)"/><rect x="103" y="133" width="6" height="6" transform="rotate(0,106,136)"/><rect x="103" y="139" width="6" height="6" transform="rotate(0,106,142)"/><rect x="103" y="145" width="6" height="6" transform="rotate(0,106,148)"/><path d="M 103 157v 6h 3a 3 3, 0, 0, 0, 0 -6" transform="rotate(0,106,160)"/><rect x="103" y="169" width="6" height="6" transform="rotate(0,106,172)"/><path d="M 103 175v 6h 3a 3 3, 0, 0, 0, 0 -6" transform="rotate(90,106,178)"/><path d="M 103 187v 6h 6v -3a 3 3, 0, 0, 0, -3 -3" transform="rotate(-90,106,190)"/><path d="M 103 193v 6h 3a 3 3, 0, 0, 0, 0 -6" transform="rotate(90,106,196)"/><path d="M 109 7v 6h 3a 3 3, 0, 0, 0, 0 -6" transform="rotate(0,112,10)"/><path d="M 109 31v 6h 3a 3 3, 0, 0, 0, 0 -6" transform="rotate(-90,112,34)"/><path d="M 109 37v 6h 3a 3 3, 0, 0, 0, 0 -6" transform="rotate(90,112,40)"/><path d="M 109 61v 6h 6v -3a 3 3, 0, 0, 0, -3 -3" transform="rotate(0,112,64)"/><rect x="109" y="67" width="6" height="6" transform="rotate(0,112,70)"/><path d="M 109 73v 6h 3a 3 3, 0, 0, 0, 0 -6" transform="rotate(90,112,76)"/><path d="M 109 85v 6h 3a 3 3, 0, 0, 0, 0 -6" transform="rotate(0,112,88)"/><path d="M 109 103v 6h 3a 3 3, 0, 0, 0, 0 -6" transform="rotate(0,112,106)"/><path d="M 109 121v 6h 3a 3 3, 0, 0, 0, 0 -6" transform="rotate(0,112,124)"/><rect x="109" y="133" width="6" height="6" transform="rotate(0,112,136)"/><path d="M 109 145v 6h 3a 3 3, 0, 0, 0, 0 -6" transform="rotate(0,112,148)"/><path d="M 109 163v 6h 3a 3 3, 0, 0, 0, 0 -6" transform="rotate(-90,112,166)"/><rect x="109" y="169" width="6" height="6" transform="rotate(0,112,172)"/><path d="M 109 181v 6h 3a 3 3, 0, 0, 0, 0 -6" transform="rotate(-90,112,184)"/><path d="M 109 187v 6h 6v -3a 3 3, 0, 0, 0, -3 -3" transform="rotate(90,112,190)"/><path d="M 115 43v 6h 6v -3a 3 3, 0, 0, 0, -3 -3" transform="rotate(-90,118,46)"/><rect x="115" y="49" width="6" height="6" transform="rotate(0,118,52)"/><path d="M 115 55v 6h 3a 3 3, 0, 0, 0, 0 -6" transform="rotate(90,118,58)"/><path d="M 115 109v 6h 3a 3 3, 0, 0, 0, 0 -6" transform="rotate(180,118,112)"/><path d="M 115 133v 6h 3a 3 3, 0, 0, 0, 0 -6" transform="rotate(0,118,136)"/><circle cx="118" cy="154" r="3" transform="rotate(0,118,154)"/><path d="M 115 169v 6h 3a 3 3, 0, 0, 0, 0 -6" transform="rotate(0,118,172)"/><circle cx="118" cy="196" r="3" transform="rotate(0,118,196)"/><path d="M 121 1v 6h 3a 3 3, 0, 0, 0, 0 -6" transform="rotate(180,124,4)"/><path d="M 121 19v 6h 3a 3 3, 0, 0, 0, 0 -6" transform="rotate(-90,124,22)"/><rect x="121" y="25" width="6" height="6" transform="rotate(0,124,28)"/><rect x="121" y="31" width="6" height="6" transform="rotate(0,124,34)"/><rect x="121" y="37" width="6" height="6" transform="rotate(0,124,40)"/><path d="M 121 43v 6h 6v -3a 3 3, 0, 0, 0, -3 -3" transform="rotate(90,124,46)"/><path d="M 121 61v 6h 6v -3a 3 3, 0, 0, 0, -3 -3" transform="rotate(-90,124,64)"/><rect x="121" y="67" width="6" height="6" transform="rotate(0,124,70)"/><rect x="121" y="73" width="6" height="6" transform="rotate(0,124,76)"/><path d="M 121 79v 6h 6v -3a 3 3, 0, 0, 0, -3 -3" transform="rotate(180,124,82)"/><rect x="121" y="109" width="6" height="6" transform="rotate(0,124,112)"/><path d="M 121 115v 6h 6v -3a 3 3, 0, 0, 0, -3 -3" transform="rotate(180,124,118)"/><path d="M 121 127v 6h 3a 3 3, 0, 0, 0, 0 -6" transform="rotate(180,124,130)"/><circle cx="124" cy="166" r="3" transform="rotate(0,124,166)"/><path d="M 121 175v 6h 3a 3 3, 0, 0, 0, 0 -6" transform="rotate(-90,124,178)"/><path d="M 121 181v 6h 6v -3a 3 3, 0, 0, 0, -3 -3" transform="rotate(180,124,184)"/><path d="M 127 1v 6h 6v -3a 3 3, 0, 0, 0, -3 -3" transform="rotate(0,130,4)"/><rect x="127" y="7" width="6" height="6" transform="rotate(0,130,10)"/><path d="M 127 13v 6h 3a 3 3, 0, 0, 0, 0 -6" transform="rotate(90,130,16)"/><rect x="127" y="25" width="6" height="6" transform="rotate(0,130,28)"/><path d="M 127 49v 6h 6v -3a 3 3, 0, 0, 0, -3 -3" transform="rotate(-90,130,52)"/><rect x="127" y="55" width="6" height="6" transform="rotate(0,130,58)"/><path d="M 127 61v 6h 6v -3a 3 3, 0, 0, 0, -3 -3" transform="rotate(90,130,64)"/><path d="M 127 73v 6h 6v -3a 3 3, 0, 0, 0, -3 -3" transform="rotate(0,130,76)"/><rect x="127" y="79" width="6" height="6" transform="rotate(0,130,82)"/><path d="M 127 97v 6h 6v -3a 3 3, 0, 0, 0, -3 -3" transform="rotate(-90,130,100)"/><rect x="127" y="103" width="6" height="6" transform="rotate(0,130,106)"/><rect x="127" y="109" width="6" height="6" transform="rotate(0,130,112)"/><rect x="127" y="115" width="6" height="6" transform="rotate(0,130,118)"/><rect x="127" y="121" width="6" height="6" transform="rotate(0,130,124)"/><rect x="127" y="127" width="6" height="6" transform="rotate(0,130,130)"/><rect x="127" y="133" width="6" height="6" transform="rotate(0,130,136)"/><path d="M 127 139v 6h 6v -3a 3 3, 0, 0, 0, -3 -3" transform="rotate(180,130,142)"/><path d="M 127 151v 6h 6v -3a 3 3, 0, 0, 0, -3 -3" transform="rotate(-90,130,154)"/><path d="M 127 157v 6h 6v -3a 3 3, 0, 0, 0, -3 -3" transform="rotate(180,130,160)"/><rect x="127" y="181" width="6" height="6" transform="rotate(0,130,184)"/><path d="M 127 193v 6h 3a 3 3, 0, 0, 0, 0 -6" transform="rotate(180,130,196)"/><path d="M 133 25v 6h 3a 3 3, 0, 0, 0, 0 -6" transform="rotate(0,136,28)"/><circle cx="136" cy="40" r="3" transform="rotate(0,136,40)"/><path d="M 133 49v 6h 6v -3a 3 3, 0, 0, 0, -3 -3" transform="rotate(0,136,52)"/><path d="M 133 55v 6h 6v -3a 3 3, 0, 0, 0, -3 -3" transform="rotate(90,136,58)"/><rect x="133" y="79" width="6" height="6" transform="rotate(0,136,82)"/><path d="M 133 91v 6h 6v -3a 3 3, 0, 0, 0, -3 -3" transform="rotate(-90,136,94)"/><rect x="133" y="97" width="6" height="6" transform="rotate(0,136,100)"/><path d="M 133 127v 6h 3a 3 3, 0, 0, 0, 0 -6" transform="rotate(0,136,130)"/><path d="M 133 139v 6h 6v -3a 3 3, 0, 0, 0, -3 -3" transform="rotate(0,136,142)"/><rect x="133" y="145" width="6" height="6" transform="rotate(0,136,148)"/><rect x="133" y="151" width="6" height="6" transform="rotate(0,136,154)"/><rect x="133" y="157" width="6" height="6" transform="rotate(0,136,160)"/><rect x="133" y="163" width="6" height="6" transform="rotate(0,136,166)"/><path d="M 133 169v 6h 6v -3a 3 3, 0, 0, 0, -3 -3" transform="rotate(180,136,172)"/><path d="M 133 181v 6h 6v -3a 3 3, 0, 0, 0, -3 -3" transform="rotate(0,136,184)"/><rect x="133" y="187" width="6" height="6" transform="rotate(0,136,190)"/><path d="M 133 193v 6h 6v -3a 3 3, 0, 0, 0, -3 -3" transform="rotate(90,136,196)"/><path d="M 139 7v 6h 3a 3 3, 0, 0, 0, 0 -6" transform="rotate(-90,142,10)"/><rect x="139" y="13" width="6" height="6" transform="rotate(0,142,16)"/><path d="M 139 19v 6h 3a 3 3, 0, 0, 0, 0 -6" transform="rotate(90,142,22)"/><circle cx="142" cy="34" r="3" transform="rotate(0,142,34)"/><circle cx="142" cy="46" r="3" transform="rotate(0,142,46)"/><path d="M 139 73v 6h 6v -3a 3 3, 0, 0, 0, -3 -3" transform="rotate(-90,142,76)"/><path d="M 139 79v 6h 6v -3a 3 3, 0, 0, 0, -3 -3" transform="rotate(90,142,82)"/><path d="M 139 91v 6h 6v -3a 3 3, 0, 0, 0, -3 -3" transform="rotate(0,142,94)"/><rect x="139" y="97" width="6" height="6" transform="rotate(0,142,100)"/><circle cx="142" cy="112" r="3" transform="rotate(0,142,112)"/><path d="M 139 133v 6h 3a 3 3, 0, 0, 0, 0 -6" transform="rotate(180,142,136)"/><rect x="139" y="151" width="6" height="6" transform="rotate(0,142,154)"/><rect x="139" y="157" width="6" height="6" transform="rotate(0,142,160)"/><rect x="139" y="169" width="6" height="6" transform="rotate(0,142,172)"/><rect x="139" y="187" width="6" height="6" transform="rotate(0,142,190)"/><circle cx="148" cy="4" r="3" transform="rotate(0,148,4)"/><path d="M 145 13v 6h 3a 3 3, 0, 0, 0, 0 -6" transform="rotate(0,148,16)"/><circle cx="148" cy="40" r="3" transform="rotate(0,148,40)"/><path d="M 145 49v 6h 6v -3a 3 3, 0, 0, 0, -3 -3" transform="rotate(-90,148,52)"/><rect x="145" y="55" width="6" height="6" transform="rotate(0,148,58)"/><rect x="145" y="61" width="6" height="6" transform="rotate(0,148,64)"/><rect x="145" y="67" width="6" height="6" transform="rotate(0,148,70)"/><rect x="145" y="73" width="6" height="6" transform="rotate(0,148,76)"/><rect x="145" y="97" width="6" height="6" transform="rotate(0,148,100)"/><path d="M 145 103v 6h 6v -3a 3 3, 0, 0, 0, -3 -3" transform="rotate(180,148,106)"/><rect x="145" y="133" width="6" height="6" transform="rotate(0,148,136)"/><rect x="145" y="139" width="6" height="6" transform="rotate(0,148,142)"/><rect x="145" y="145" width="6" height="6" transform="rotate(0,148,148)"/><rect x="145" y="151" width="6" height="6" transform="rotate(0,148,154)"/><rect x="145" y="157" width="6" height="6" transform="rotate(0,148,160)"/><rect x="145" y="163" width="6" height="6" transform="rotate(0,148,166)"/><rect x="145" y="169" width="6" height="6" transform="rotate(0,148,172)"/><path d="M 145 187v 6h 6v -3a 3 3, 0, 0, 0, -3 -3" transform="rotate(0,148,190)"/><path d="M 145 193v 6h 3a 3 3, 0, 0, 0, 0 -6" transform="rotate(90,148,196)"/><path d="M 151 49v 6h 3a 3 3, 0, 0, 0, 0 -6" transform="rotate(0,154,52)"/><path d="M 151 67v 6h 6v -3a 3 3, 0, 0, 0, -3 -3" transform="rotate(0,154,70)"/><path d="M 151 73v 6h 6v -3a 3 3, 0, 0, 0, -3 -3" transform="rotate(90,154,76)"/><path d="M 151 85v 6h 3a 3 3, 0, 0, 0, 0 -6" transform="rotate(-90,154,88)"/><rect x="151" y="91" width="6" height="6" transform="rotate(0,154,94)"/><rect x="151" y="97" width="6" height="6" transform="rotate(0,154,100)"/><rect x="151" y="103" width="6" height="6" transform="rotate(0,154,106)"/><rect x="151" y="109" width="6" height="6" transform="rotate(0,154,112)"/><path d="M 151 115v 6h 6v -3a 3 3, 0, 0, 0, -3 -3" transform="rotate(180,154,118)"/><rect x="151" y="133" width="6" height="6" transform="rotate(0,154,136)"/><rect x="151" y="145" width="6" height="6" transform="rotate(0,154,148)"/><rect x="151" y="169" width="6" height="6" transform="rotate(0,154,172)"/><path d="M 151 175v 6h 3a 3 3, 0, 0, 0, 0 -6" transform="rotate(90,154,178)"/><path d="M 157 55v 6h 6v -3a 3 3, 0, 0, 0, -3 -3" transform="rotate(-90,160,58)"/><path d="M 157 61v 6h 6v -3a 3 3, 0, 0, 0, -3 -3" transform="rotate(180,160,64)"/><path d="M 157 103v 6h 6v -3a 3 3, 0, 0, 0, -3 -3" transform="rotate(0,160,106)"/><rect x="157" y="109" width="6" height="6" transform="rotate(0,160,112)"/><path d="M 157 115v 6h 6v -3a 3 3, 0, 0, 0, -3 -3" transform="rotate(90,160,118)"/><path d="M 157 127v 6h 6v -3a 3 3, 0, 0, 0, -3 -3" transform="rotate(-90,160,130)"/><rect x="157" y="133" width="6" height="6" transform="rotate(0,160,136)"/><rect x="157" y="139" width="6" height="6" transform="rotate(0,160,142)"/><rect x="157" y="145" width="6" height="6" transform="rotate(0,160,148)"/><circle cx="160" cy="160" r="3" transform="rotate(0,160,160)"/><rect x="157" y="169" width="6" height="6" transform="rotate(0,160,172)"/><path d="M 163 49v 6h 3a 3 3, 0, 0, 0, 0 -6" transform="rotate(-90,166,52)"/><rect x="163" y="55" width="6" height="6" transform="rotate(0,166,58)"/><rect x="163" y="61" width="6" height="6" transform="rotate(0,166,64)"/><path d="M 163 79v 6h 3a 3 3, 0, 0, 0, 0 -6" transform="rotate(180,166,82)"/><path d="M 163 91v 6h 3a 3 3, 0, 0, 0, 0 -6" transform="rotate(-90,166,94)"/><path d="M 163 97v 6h 3a 3 3, 0, 0, 0, 0 -6" transform="rotate(90,166,100)"/><rect x="163" y="109" width="6" height="6" transform="rotate(0,166,112)"/><path d="M 163 121v 6h 3a 3 3, 0, 0, 0, 0 -6" transform="rotate(-90,166,124)"/><rect x="163" y="127" width="6" height="6" transform="rotate(0,166,130)"/><rect x="163" y="133" width="6" height="6" transform="rotate(0,166,136)"/><rect x="163" y="139" width="6" height="6" transform="rotate(0,166,142)"/><rect x="163" y="145" width="6" height="6" transform="rotate(0,166,148)"/><rect x="163" y="169" width="6" height="6" transform="rotate(0,166,172)"/><rect x="163" y="175" width="6" height="6" transform="rotate(0,166,178)"/><path d="M 163 181v 6h 6v -3a 3 3, 0, 0, 0, -3 -3" transform="rotate(180,166,184)"/><path d="M 169 61v 6h 6v -3a 3 3, 0, 0, 0, -3 -3" transform="rotate(0,172,64)"/><path d="M 169 67v 6h 3a 3 3, 0, 0, 0, 0 -6" transform="rotate(90,172,70)"/><path d="M 169 79v 6h 6v -3a 3 3, 0, 0, 0, -3 -3" transform="rotate(0,172,82)"/><path d="M 169 85v 6h 3a 3 3, 0, 0, 0, 0 -6" transform="rotate(90,172,88)"/><path d="M 169 103v 6h 3a 3 3, 0, 0, 0, 0 -6" transform="rotate(-90,172,106)"/><rect x="169" y="109" width="6" height="6" transform="rotate(0,172,112)"/><path d="M 169 127v 6h 3a 3 3, 0, 0, 0, 0 -6" transform="rotate(0,172,130)"/><rect x="169" y="139" width="6" height="6" transform="rotate(0,172,142)"/><rect x="169" y="145" width="6" height="6" transform="rotate(0,172,148)"/><rect x="169" y="151" width="6" height="6" transform="rotate(0,172,154)"/><rect x="169" y="157" width="6" height="6" transform="rotate(0,172,160)"/><rect x="169" y="163" width="6" height="6" transform="rotate(0,172,166)"/><path d="M 169 169v 6h 6v -3a 3 3, 0, 0, 0, -3 -3" transform="rotate(90,172,172)"/><rect x="169" y="181" width="6" height="6" transform="rotate(0,172,184)"/><path d="M 169 187v 6h 6v -3a 3 3, 0, 0, 0, -3 -3" transform="rotate(180,172,190)"/><path d="M 175 49v 6h 6v -3a 3 3, 0, 0, 0, -3 -3" transform="rotate(-90,178,52)"/><path d="M 175 55v 6h 3a 3 3, 0, 0, 0, 0 -6" transform="rotate(90,178,58)"/><path d="M 175 91v 6h 6v -3a 3 3, 0, 0, 0, -3 -3" transform="rotate(-90,178,94)"/><path d="M 175 97v 6h 6v -3a 3 3, 0, 0, 0, -3 -3" transform="rotate(180,178,100)"/><rect x="175" y="109" width="6" height="6" transform="rotate(0,178,112)"/><circle cx="178" cy="124" r="3" transform="rotate(0,178,124)"/><path d="M 175 133v 6h 3a 3 3, 0, 0, 0, 0 -6" transform="rotate(-90,178,136)"/><path d="M 175 139v 6h 6v -3a 3 3, 0, 0, 0, -3 -3" transform="rotate(90,178,142)"/><rect x="175" y="163" width="6" height="6" transform="rotate(0,178,166)"/><path d="M 175 175v 6h 6v -3a 3 3, 0, 0, 0, -3 -3" transform="rotate(-90,178,178)"/><rect x="175" y="181" width="6" height="6" transform="rotate(0,178,184)"/><rect x="175" y="187" width="6" height="6" transform="rotate(0,178,190)"/><path d="M 175 193v 6h 3a 3 3, 0, 0, 0, 0 -6" transform="rotate(90,178,196)"/><rect x="181" y="49" width="6" height="6" transform="rotate(0,184,52)"/><path d="M 181 79v 6h 3a 3 3, 0, 0, 0, 0 -6" transform="rotate(-90,184,82)"/><rect x="181" y="85" width="6" height="6" transform="rotate(0,184,88)"/><rect x="181" y="91" width="6" height="6" transform="rotate(0,184,94)"/><rect x="181" y="97" width="6" height="6" transform="rotate(0,184,100)"/><rect x="181" y="103" width="6" height="6" transform="rotate(0,184,106)"/><rect x="181" y="109" width="6" height="6" transform="rotate(0,184,112)"/><path d="M 181 157v 6h 6v -3a 3 3, 0, 0, 0, -3 -3" transform="rotate(-90,184,160)"/><rect x="181" y="163" width="6" height="6" transform="rotate(0,184,166)"/><path d="M 181 175v 6h 6v -3a 3 3, 0, 0, 0, -3 -3" transform="rotate(0,184,178)"/><path d="M 181 181v 6h 6v -3a 3 3, 0, 0, 0, -3 -3" transform="rotate(90,184,184)"/><path d="M 187 49v 6h 3a 3 3, 0, 0, 0, 0 -6" transform="rotate(0,190,52)"/><path d="M 187 61v 6h 6v -3a 3 3, 0, 0, 0, -3 -3" transform="rotate(-90,190,64)"/><rect x="187" y="67" width="6" height="6" transform="rotate(0,190,70)"/><path d="M 187 73v 6h 3a 3 3, 0, 0, 0, 0 -6" transform="rotate(90,190,76)"/><rect x="187" y="97" width="6" height="6" transform="rotate(0,190,100)"/><rect x="187" y="103" width="6" height="6" transform="rotate(0,190,106)"/><rect x="187" y="109" width="6" height="6" transform="rotate(0,190,112)"/><path d="M 187 115v 6h 3a 3 3, 0, 0, 0, 0 -6" transform="rotate(90,190,118)"/><path d="M 187 133v 6h 3a 3 3, 0, 0, 0, 0 -6" transform="rotate(-90,190,136)"/><rect x="187" y="139" width="6" height="6" transform="rotate(0,190,142)"/><path d="M 187 145v 6h 3a 3 3, 0, 0, 0, 0 -6" transform="rotate(90,190,148)"/><rect x="187" y="157" width="6" height="6" transform="rotate(0,190,160)"/><rect x="187" y="163" width="6" height="6" transform="rotate(0,190,166)"/><path d="M 187 169v 6h 6v -3a 3 3, 0, 0, 0, -3 -3" transform="rotate(180,190,172)"/><circle cx="190" cy="196" r="3" transform="rotate(0,190,196)"/><path d="M 193 61v 6h 3a 3 3, 0, 0, 0, 0 -6" transform="rotate(0,196,64)"/><circle cx="196" cy="82" r="3" transform="rotate(0,196,82)"/><path d="M 193 97v 6h 3a 3 3, 0, 0, 0, 0 -6" transform="rotate(0,196,100)"/><path d="M 193 109v 6h 3a 3 3, 0, 0, 0, 0 -6" transform="rotate(0,196,112)"/><path d="M 193 121v 6h 3a 3 3, 0, 0, 0, 0 -6" transform="rotate(-90,196,124)"/><path d="M 193 127v 6h 3a 3 3, 0, 0, 0, 0 -6" transform="rotate(90,196,130)"/><path d="M 193 139v 6h 3a 3 3, 0, 0, 0, 0 -6" transform="rotate(0,196,142)"/><path d="M 193 157v 6h 3a 3 3, 0, 0, 0, 0 -6" transform="rotate(0,196,160)"/><path d="M 193 169v 6h 3a 3 3, 0, 0, 0, 0 -6" transform="rotate(0,196,172)"/><circle cx="196" cy="184" r="3" transform="rotate(0,196,184)"/><path d="M 1 1v 6h 6v -3a 3 3, 0, 0, 0, -3 -3" transform="rotate(-90,4,4)"/><rect x="1" y="7" width="6" height="6" transform="rotate(0,4,10)"/><rect x="1" y="13" width="6" height="6" transform="rotate(0,4,16)"/><rect x="1" y="19" width="6" height="6" transform="rotate(0,4,22)"/><rect x="1" y="25" width="6" height="6" transform="rotate(0,4,28)"/><rect x="1" y="31" width="6" height="6" transform="rotate(0,4,34)"/><path d="M 1 37v 6h 6v -3a 3 3, 0, 0, 0, -3 -3" transform="rotate(180,4,40)"/><rect x="7" y="1" width="6" height="6" transform="rotate(0,10,4)"/><rect x="7" y="37" width="6" height="6" transform="rotate(0,10,40)"/><rect x="13" y="1" width="6" height="6" transform="rotate(0,16,4)"/><rect x="13" y="37" width="6" height="6" transform="rotate(0,16,40)"/><rect x="19" y="1" width="6" height="6" transform="rotate(0,22,4)"/><rect x="19" y="37" width="6" height="6" transform="rotate(0,22,40)"/><rect x="25" y="1" width="6" height="6" transform="rotate(0,28,4)"/><rect x="25" y="37" width="6" height="6" transform="rotate(0,28,40)"/><rect x="31" y="1" width="6" height="6" transform="rotate(0,34,4)"/><rect x="31" y="37" width="6" height="6" transform="rotate(0,34,40)"/><path d="M 37 1v 6h 6v -3a 3 3, 0, 0, 0, -3 -3" transform="rotate(0,40,4)"/><rect x="37" y="7" width="6" height="6" transform="rotate(0,40,10)"/><rect x="37" y="13" width="6" height="6" transform="rotate(0,40,16)"/><rect x="37" y="19" width="6" height="6" transform="rotate(0,40,22)"/><rect x="37" y="25" width="6" height="6" transform="rotate(0,40,28)"/><rect x="37" y="31" width="6" height="6" transform="rotate(0,40,34)"/><path d="M 37 37v 6h 6v -3a 3 3, 0, 0, 0, -3 -3" transform="rotate(90,40,40)"/><path d="M 13 13v 6h 6v -3a 3 3, 0, 0, 0, -3 -3" transform="rotate(-90,16,16)"/><rect x="13" y="19" width="6" height="6" transform="rotate(0,16,22)"/><path d="M 13 25v 6h 6v -3a 3 3, 0, 0, 0, -3 -3" transform="rotate(180,16,28)"/><rect x="19" y="13" width="6" height="6" transform="rotate(0,22,16)"/><rect x="19" y="19" width="6" height="6" transform="rotate(0,22,22)"/><rect x="19" y="25" width="6" height="6" transform="rotate(0,22,28)"/><path d="M 25 13v 6h 6v -3a 3 3, 0, 0, 0, -3 -3" transform="rotate(0,28,16)"/><rect x="25" y="19" width="6" height="6" transform="rotate(0,28,22)"/><path d="M 25 25v 6h 6v -3a 3 3, 0, 0, 0, -3 -3" transform="rotate(90,28,28)"/><path d="M 157 1v 6h 6v -3a 3 3, 0, 0, 0, -3 -3" transform="rotate(-90,160,4)"/><rect x="157" y="7" width="6" height="6" transform="rotate(0,160,10)"/><rect x="157" y="13" width="6" height="6" transform="rotate(0,160,16)"/><rect x="157" y="19" width="6" height="6" transform="rotate(0,160,22)"/><rect x="157" y="25" width="6" height="6" transform="rotate(0,160,28)"/><rect x="157" y="31" width="6" height="6" transform="rotate(0,160,34)"/><path d="M 157 37v 6h 6v -3a 3 3, 0, 0, 0, -3 -3" transform="rotate(180,160,40)"/><rect x="163" y="1" width="6" height="6" transform="rotate(0,166,4)"/><rect x="163" y="37" width="6" height="6" transform="rotate(0,166,40)"/><rect x="169" y="1" width="6" height="6" transform="rotate(0,172,4)"/><rect x="169" y="37" width="6" height="6" transform="rotate(0,172,40)"/><rect x="175" y="1" width="6" height="6" transform="rotate(0,178,4)"/><rect x="175" y="37" width="6" height="6" transform="rotate(0,178,40)"/><rect x="181" y="1" width="6" height="6" transform="rotate(0,184,4)"/><rect x="181" y="37" width="6" height="6" transform="rotate(0,184,40)"/><rect x="187" y="1" width="6" height="6" transform="rotate(0,190,4)"/><rect x="187" y="37" width="6" height="6" transform="rotate(0,190,40)"/><path d="M 193 1v 6h 6v -3a 3 3, 0, 0, 0, -3 -3" transform="rotate(0,196,4)"/><rect x="193" y="7" width="6" height="6" transform="rotate(0,196,10)"/><rect x="193" y="13" width="6" height="6" transform="rotate(0,196,16)"/><rect x="193" y="19" width="6" height="6" transform="rotate(0,196,22)"/><rect x="193" y="25" width="6" height="6" transform="rotate(0,196,28)"/><rect x="193" y="31" width="6" height="6" transform="rotate(0,196,34)"/><path d="M 193 37v 6h 6v -3a 3 3, 0, 0, 0, -3 -3" transform="rotate(90,196,40)"/><path d="M 169 13v 6h 6v -3a 3 3, 0, 0, 0, -3 -3" transform="rotate(-90,172,16)"/><rect x="169" y="19" width="6" height="6" transform="rotate(0,172,22)"/><path d="M 169 25v 6h 6v -3a 3 3, 0, 0, 0, -3 -3" transform="rotate(180,172,28)"/><rect x="175" y="13" width="6" height="6" transform="rotate(0,178,16)"/><rect x="175" y="19" width="6" height="6" transform="rotate(0,178,22)"/><rect x="175" y="25" width="6" height="6" transform="rotate(0,178,28)"/><path d="M 181 13v 6h 6v -3a 3 3, 0, 0, 0, -3 -3" transform="rotate(0,184,16)"/><rect x="181" y="19" width="6" height="6" transform="rotate(0,184,22)"/><path d="M 181 25v 6h 6v -3a 3 3, 0, 0, 0, -3 -3" transform="rotate(90,184,28)"/><path d="M 1 157v 6h 6v -3a 3 3, 0, 0, 0, -3 -3" transform="rotate(-90,4,160)"/><rect x="1" y="163" width="6" height="6" transform="rotate(0,4,166)"/><rect x="1" y="169" width="6" height="6" transform="rotate(0,4,172)"/><rect x="1" y="175" width="6" height="6" transform="rotate(0,4,178)"/><rect x="1" y="181" width="6" height="6" transform="rotate(0,4,184)"/><rect x="1" y="187" width="6" height="6" transform="rotate(0,4,190)"/><path d="M 1 193v 6h 6v -3a 3 3, 0, 0, 0, -3 -3" transform="rotate(180,4,196)"/><rect x="7" y="157" width="6" height="6" transform="rotate(0,10,160)"/><rect x="7" y="193" width="6" height="6" transform="rotate(0,10,196)"/><rect x="13" y="157" width="6" height="6" transform="rotate(0,16,160)"/><rect x="13" y="193" width="6" height="6" transform="rotate(0,16,196)"/><rect x="19" y="157" width="6" height="6" transform="rotate(0,22,160)"/><rect x="19" y="193" width="6" height="6" transform="rotate(0,22,196)"/><rect x="25" y="157" width="6" height="6" transform="rotate(0,28,160)"/><rect x="25" y="193" width="6" height="6" transform="rotate(0,28,196)"/><rect x="31" y="157" width="6" height="6" transform="rotate(0,34,160)"/><rect x="31" y="193" width="6" height="6" transform="rotate(0,34,196)"/><path d="M 37 157v 6h 6v -3a 3 3, 0, 0, 0, -3 -3" transform="rotate(0,40,160)"/><rect x="37" y="163" width="6" height="6" transform="rotate(0,40,166)"/><rect x="37" y="169" width="6" height="6" transform="rotate(0,40,172)"/><rect x="37" y="175" width="6" height="6" transform="rotate(0,40,178)"/><rect x="37" y="181" width="6" height="6" transform="rotate(0,40,184)"/><rect x="37" y="187" width="6" height="6" transform="rotate(0,40,190)"/><path d="M 37 193v 6h 6v -3a 3 3, 0, 0, 0, -3 -3" transform="rotate(90,40,196)"/><path d="M 13 169v 6h 6v -3a 3 3, 0, 0, 0, -3 -3" transform="rotate(-90,16,172)"/><rect x="13" y="175" width="6" height="6" transform="rotate(0,16,178)"/><path d="M 13 181v 6h 6v -3a 3 3, 0, 0, 0, -3 -3" transform="rotate(180,16,184)"/><rect x="19" y="169" width="6" height="6" transform="rotate(0,22,172)"/><rect x="19" y="175" width="6" height="6" transform="rotate(0,22,178)"/><rect x="19" y="181" width="6" height="6" transform="rotate(0,22,184)"/><path d="M 25 169v 6h 6v -3a 3 3, 0, 0, 0, -3 -3" transform="rotate(0,28,172)"/><rect x="25" y="175" width="6" height="6" transform="rotate(0,28,178)"/><path d="M 25 181v 6h 6v -3a 3 3, 0, 0, 0, -3 -3" transform="rotate(90,28,184)"/></clipPath></defs><rect x="0" y="0" height="200" width="200" clip-path="url('#clip-path-background-color')" fill="#fff"/><rect x="1" y="1" height="198" width="198" clip-path="url('#clip-path-dot-color')" fill="#100e2d"/></svg>